Coordinates
version=1
nRows=26
nColumns=24
inDegrees=yes

Units are S.I. units (second, meters, Newtons, ...)
Angles are in degrees.

endheader
time	pelvis_tilt	pelvis_list	pelvis_rotation	pelvis_tx	pelvis_ty	pelvis_tz	hip_flexion_r	hip_adduction_r	hip_rotation_r	knee_angle_r	ankle_angle_r	subtalar_angle_r	mtp_angle_r	hip_flexion_l	hip_adduction_l	hip_rotation_l	knee_angle_l	ankle_angle_l	subtalar_angle_l	mtp_angle_l	lumbar_extension	lumbar_bending	lumbar_rotation
      3.24500000	    -11.79171644	      9.14180532	     -5.70718927	     -2.26346685	     -0.02993490	     -0.26383931	     15.72178849	    -14.93105458	     -5.59309944	    -59.04760626	    -31.96938464	    -12.55319434	     17.18785292	     29.32531833	     10.36586214	     -4.98935232	    -19.67423110	     -2.39024824	    -11.73151937	     -5.31110182	      9.44244702	     -9.09083505	      6.62976645
      3.25000000	    -11.73501100	      8.99616490	     -5.59691943	     -2.25636606	     -0.02843187	     -0.26448050	     16.68015528	    -14.67251523	     -5.44824050	    -60.06925911	    -30.49904558	    -12.95859618	     17.56494963	     28.55024534	     10.38200877	     -4.82545826	    -19.29860102	     -1.96288250	    -11.36919128	     -5.17418782	      9.27479688	     -8.97915301	      6.37681922
      3.25500000	    -11.69982695	      8.79326989	     -5.50539888	     -2.24947242	     -0.02696205	     -0.26516327	     17.67014942	    -14.34631463	     -5.29405105	    -61.01893574	    -28.97467817	    -13.09749600	     18.08889245	     27.83456246	     10.32335303	     -4.73114643	    -18.96968745	     -1.56545860	    -11.05792467	     -5.04349453	      9.09274521	     -8.78905775	      6.11012718
      3.26000000	    -11.66761778	      8.59057779	     -5.39732390	     -2.24250620	     -0.02547459	     -0.26584424	     18.62554234	    -14.03052163	     -5.19091085	    -61.84742374	    -27.50545215	    -13.13200858	     18.70601896	     27.08959550	     10.27349393	     -4.56591426	    -18.58974691	     -1.20659233	    -10.76394703	     -4.92198318	      8.93466431	     -8.60233407	      5.83884507
      3.26500000	    -11.63642307	      8.39967844	     -5.28685378	     -2.23553036	     -0.02398313	     -0.26657220	     19.53972913	    -13.73719761	     -5.07749028	    -62.47373725	    -26.50463373	    -13.25098415	     21.52290076	     26.32555999	     10.24643187	     -4.33547707	    -18.16280097	     -0.94222695	    -10.58423383	     -4.84939379	      8.78681108	     -8.41772842	      5.57943294
      3.27000000	    -11.58660815	      8.15589994	     -5.14358302	     -2.22861425	     -0.02249148	     -0.26725589	     20.42320482	    -13.39877853	     -5.07111453	    -63.10913450	    -25.15967302	    -13.04145309	     21.97761465	     25.54987974	     10.16353159	     -4.11452242	    -17.76487517	     -0.61044769	    -10.29331481	     -4.75523378	      8.60477638	     -8.19412720	      5.25660979
      3.27500000	    -11.53355854	      7.95421746	     -4.98776951	     -2.22167859	     -0.02103178	     -0.26802364	     21.27412230	    -13.12641727	     -5.05414543	    -63.58827075	    -24.15959478	    -12.84973707	     24.07644755	     24.74927580	     10.14369739	     -3.80891634	    -17.31362468	     -0.35341246	    -10.13675682	     -4.88712563	      8.43321014	     -8.00469224	      4.94630000
      3.28000000	    -11.47447012	      7.74376087	     -4.83753325	     -2.21481302	     -0.01961480	     -0.26870923	     22.12820644	    -12.83801613	     -5.06193100	    -64.06044187	    -22.99872990	    -12.42804903	     24.72585501	     23.95127576	     10.09349583	     -3.56075902	    -16.86768181	     -0.09876762	     -9.91962738	     -4.87359735	      8.25143689	     -7.81215246	      4.63561293
      3.28500000	    -11.44407499	      7.45708752	     -4.60010990	     -2.20789687	     -0.01822116	     -0.26946472	     22.93697180	    -12.49768865	     -5.20501242	    -64.41133192	    -21.97637209	    -12.01737957	     25.19671261	     23.17509746	      9.98425795	     -3.24748228	    -16.43559582	      0.19294226	     -9.62876439	     -4.81084837	      8.09840052	     -7.55273672	      4.21856656
      3.29000000	    -11.38529243	      7.21903537	     -4.35950149	     -2.20103305	     -0.01688366	     -0.27023534	     23.71599023	    -12.22577992	     -5.34240559	    -64.70154611	    -20.98060345	    -11.49802181	     25.79400956	     22.36884663	      9.92493397	     -2.95137576	    -15.97690143	      0.43502427	     -9.38487126	     -4.77852625	      7.91656616	     -7.34266781	      3.81451139
      3.29500000	    -11.27984960	      7.00119271	     -4.10044887	     -2.19417159	     -0.01552142	     -0.27111013	     24.38841214	    -12.00169989	     -5.48303729	    -64.76009070	    -20.54835072	    -11.32575665	     29.22901454	     21.49244233	      9.90829164	     -2.57508942	    -15.47935751	      0.66307049	     -9.22901748	     -5.14936229	      7.68973384	     -7.15239582	      3.41170171
      3.30000000	    -11.24187863	      6.73652311	     -3.83282651	     -2.18735667	     -0.01429957	     -0.27185413	     25.14800379	    -11.70386240	     -5.66997404	    -64.89315806	    -19.66839779	    -10.79912133	     29.59311862	     20.71595519	      9.79772392	     -2.33395424	    -15.02734633	      0.93870209	     -8.87341463	     -5.07573150	      7.53410536	     -6.91925664	      2.98381990
      3.30500000	    -11.07311871	      6.53044201	     -3.59067543	     -2.18047357	     -0.01298155	     -0.27264152	     25.73459492	    -11.48505028	     -5.81243881	    -64.89235048	    -18.88208093	    -10.24612449	     30.92712172	     19.74802602	      9.76430272	     -2.03832530	    -14.46478772	      1.08556643	     -8.70359874	     -5.12233408	      7.26167065	     -6.74308430	      2.61685423
      3.31000000	    -11.00108152	      6.30792518	     -3.25306884	     -2.17374453	     -0.01189020	     -0.27345557	     26.40831827	    -11.27541815	     -6.06067798	    -64.85210316	    -18.11991153	     -9.80027324	     32.03137027	     18.94793114	      9.70128658	     -1.79032879	    -14.01662672	      1.36863113	     -8.26344255	     -5.04263175	      7.05729229	     -6.57050801	      2.11077162
      3.31500000	    -10.99665237	      5.97682423	     -2.91211682	     -2.16696454	     -0.01083789	     -0.27427583	     27.10262661	    -10.93368628	     -6.35299077	    -64.71041985	    -17.34343969	     -9.34671164	     32.50892060	     18.22058896	      9.51307653	     -1.52701779	    -13.57930747	      1.62315655	     -7.89974219	     -4.95317604	      6.93952981	     -6.27074727	      1.62631031
      3.32000000	    -10.86411209	      5.70877132	     -2.58105810	     -2.16017543	     -0.00974614	     -0.27518968	     27.61764042	    -10.68726501	     -6.60486094	    -64.37730241	    -16.84917576	     -9.09589324	     35.43449392	     17.32824386	      9.40377260	     -1.20880954	    -13.07436003	      1.80725971	     -7.63577378	     -4.77002621	      6.68778701	     -6.02873192	      1.17125164
      3.32500000	    -10.81770805	      5.47666766	     -2.28188756	     -2.15346018	     -0.00886671	     -0.27593728	     28.27263632	    -10.43945167	     -6.81966383	    -64.13162345	    -15.98850096	     -8.59205672	     35.84377151	     16.57552360	      9.28873155	     -1.01797361	    -12.63490569	      2.04653092	     -7.26230185	     -4.65611365	      6.53886378	     -5.83342932	      0.75081746
      3.33000000	    -10.78774824	      5.19322880	     -1.95803348	     -2.14676464	     -0.00804070	     -0.27674138	     28.90319751	    -10.14651241	     -7.06956263	    -63.78921870	    -15.15496860	     -8.10217041	     36.22964090	     15.85609295	      9.12289729	     -0.79165580	    -12.22130086	      2.27998229	     -6.93319433	     -4.55054259	      6.40053990	     -5.57669338	      0.29216936
      3.33500000	    -10.61623066	      4.95078492	     -1.69317863	     -2.14001705	     -0.00714181	     -0.27753169	     29.35283426	     -9.88761511	     -7.25476245	    -63.31926433	    -14.40516630	     -7.67860325	     37.49142712	     14.95227881	      8.99559809	     -0.53702263	    -11.73894909	      2.41665509	     -6.75684835	     -4.34733388	      6.12721462	     -5.35285087	     -0.06281563
      3.34000000	    -10.68404129	      4.67248361	     -1.37425944	     -2.13336301	     -0.00661730	     -0.27831014	     30.06873191	     -9.59432501	     -7.49587210	    -62.85420273	    -13.64789032	     -7.29011442	     37.76415852	     14.38749870	      8.81238399	     -0.29066816	    -11.40485646	      2.71328165	     -6.43481316	     -4.22943155	      6.09862295	     -5.09886184	     -0.47732238
      3.34500000	    -10.61270089	      4.46911086	     -1.06112913	     -2.12676121	     -0.00602954	     -0.27908136	     30.61746902	     -9.39350176	     -7.69496250	    -62.31742261	    -12.85840558	     -6.83611439	     38.29327116	     13.67340706	      8.70918750	     -0.05264736	    -11.05025049	      2.91048492	     -6.15557438	     -4.08678480	      5.91383065	     -4.92374173	     -0.90272764
      3.35000000	    -10.63909796	      4.21476994	     -0.78914309	     -2.12013778	     -0.00558893	     -0.27980443	     31.25781316	     -9.10687420	     -7.86873418	    -61.70418581	    -12.19574063	     -6.46627320	     38.54468840	     13.09086554	      8.53479898	      0.14384211	    -10.73830908	      3.13138848	     -5.94593675	     -3.99456182	      5.84551112	     -4.68070114	     -1.28729417
      3.35500000	    -10.62447063	      4.00628098	     -0.49964592	     -2.11352006	     -0.00522478	     -0.28054858	     31.83300932	     -8.89600306	     -8.05976982	    -61.03764431	    -11.53124599	     -6.11040328	     38.79506731	     12.47675534	      8.41136316	      0.36297181	    -10.44648393	      3.35712736	     -5.74164671	     -3.89116924	      5.73289689	     -4.49100904	     -1.64725524
      3.36000000	    -10.63288473	      3.80034326	     -0.24521606	     -2.10693679	     -0.00494854	     -0.28121369	     32.42764649	     -8.65945802	     -8.19640074	    -60.30679578	    -10.99065051	     -5.80690557	     38.95906836	     11.90283321	      8.27457024	      0.57825189	    -10.17345418	      3.57622019	     -5.56841184	     -3.80023274	      5.64365292	     -4.30013937	     -1.99444147
      3.36500000	    -10.65447089	      3.60742930	      0.00331351	     -2.10035366	     -0.00477194	     -0.28184978	     33.01750185	     -8.43718145	     -8.32603508	    -59.51463451	    -10.52077180	     -5.55357741	     39.04989138	     11.36018922	      8.14566961	      0.78622417	     -9.92787130	      3.80551478	     -5.41124259	     -3.71438192	      5.57125725	     -4.12402029	     -2.31477489
      3.37000000	    -10.68257875	      3.43547222	      0.24827455	     -2.09380212	     -0.00469046	     -0.28247351	     33.59949324	     -8.24114673	     -8.45052693	    -58.66676494	    -10.12331075	     -5.35441613	     39.07470904	     10.84302201	      8.03479651	      0.98288914	     -9.70783634	      4.03322842	     -5.25939107	     -3.63286977	      5.50002470	     -3.96368107	     -2.63084320
